<svg xmlns="http://www.w3.org/2000/svg" xmlns:xlink="http://www.w3.org/1999/xlink" xmlns:sketch="http://www.bohemiancoding.com/sketch/ns" viewBox="0 0 60 44" version="1.1" x="0px" y="0px"><title>35 - Wii U (Solid)</title><desc>Created with Sketch.</desc><g stroke="none" stroke-width="1" fill="none" fill-rule="evenodd" sketch:type="MSPage"><g sketch:type="MSLayerGroup" fill="#000000"><path d="M7,11 C5.898,11 5,11.898 5,13 C5,14.103 5.898,15 7,15 C8.102,15 9,14.103 9,13 C9,11.898 8.102,11 7,11" sketch:type="MSShapeGroup"></path><path d="M15.293,15.293 L19.293,11.293 C19.684,10.902 20.316,10.902 20.707,11.293 C21.098,11.684 21.098,12.316 20.707,12.707 L16.707,16.707 C16.512,16.902 16.256,17 16,17 C15.744,17 15.488,16.902 15.293,16.707 C14.902,16.317 14.902,15.684 15.293,15.293 L15.293,15.293 Z M18.707,19.707 L16.707,21.707 C16.512,21.902 16.256,22 16,22 C15.744,22 15.488,21.902 15.293,21.707 C14.902,21.316 14.902,20.684 15.293,20.293 L17.293,18.293 C17.684,17.902 18.316,17.902 18.707,18.293 C19.098,18.684 19.098,19.317 18.707,19.707 L18.707,19.707 Z M20.71,17.71 C20.519,17.89 20.26,18 20,18 C19.74,18 19.479,17.89 19.29,17.71 C19.109,17.52 19,17.26 19,17 C19,16.73 19.109,16.48 19.29,16.29 C19.66,15.92 20.33,15.92 20.71,16.29 C20.89,16.48 21,16.74 21,17 C21,17.26 20.89,17.52 20.71,17.71 L20.71,17.71 Z M25.707,12.707 L22.707,15.707 C22.512,15.902 22.256,16 22,16 C21.744,16 21.488,15.902 21.293,15.707 C20.902,15.316 20.902,14.684 21.293,14.293 L24.293,11.293 C24.684,10.902 25.316,10.902 25.707,11.293 C26.098,11.684 26.098,12.316 25.707,12.707 L25.707,12.707 Z" sketch:type="MSShapeGroup"></path><path d="M51.312,0 L8.687,0 C3.897,0 0,3.898 0,8.688 L0,35.313 C0,40.103 3.897,44 8.687,44 L51.312,44 C56.102,44 60,40.103 60,35.313 L60,8.688 C60,3.898 56.102,0 51.312,0 L51.312,0 Z M26,4 L34,4 C34.553,4 35,4.447 35,5 C35,5.553 34.553,6 34,6 L26,6 C25.447,6 25,5.553 25,5 C25,4.447 25.447,4 26,4 L26,4 Z M10,40 L8,40 C7.447,40 7,39.553 7,39 C7,38.447 7.447,38 8,38 L10,38 C10.553,38 11,38.447 11,39 C11,39.553 10.553,40 10,40 L10,40 Z M10,25 L8,25 L8,27 C8,27.553 7.553,28 7,28 C6.447,28 6,27.553 6,27 L6,25 L4,25 C3.447,25 3,24.553 3,24 C3,23.447 3.447,23 4,23 L6,23 L6,21 C6,20.447 6.447,20 7,20 C7.553,20 8,20.447 8,21 L8,23 L10,23 C10.553,23 11,23.447 11,24 C11,24.553 10.553,25 10,25 L10,25 Z M7,17 C4.794,17 3,15.206 3,13 C3,10.794 4.794,9 7,9 C9.206,9 11,10.794 11,13 C11,15.206 9.206,17 7,17 L7,17 Z M26,40 C25.448,40 25,39.552 25,39 C25,38.448 25.448,38 26,38 C26.552,38 27,38.448 27,39 C27,39.552 26.552,40 26,40 L26,40 Z M30,40 C29.448,40 29,39.552 29,39 C29,38.448 29.448,38 30,38 C30.552,38 31,38.448 31,39 C31,39.552 30.552,40 30,40 L30,40 Z M34,40 C33.448,40 33,39.552 33,39 C33,38.448 33.448,38 34,38 C34.552,38 35,38.448 35,39 C35,39.552 34.552,40 34,40 L34,40 Z M47,40 C46.448,40 46,39.552 46,39 C46,38.448 46.448,38 47,38 C47.552,38 48,38.448 48,39 C48,39.552 47.552,40 47,40 L47,40 Z M48,33.328 C48,34.802 46.802,36 45.328,36 L14.672,36 C13.198,36 12,34.802 12,33.328 L12,10.672 C12,9.198 13.198,8 14.672,8 L45.328,8 C46.802,8 48,9.198 48,10.672 L48,33.328 L48,33.328 Z M49,24 C49,23.448 49.448,23 50,23 C50.552,23 51,23.448 51,24 C51,24.552 50.552,25 50,25 C49.448,25 49,24.552 49,24 L49,24 Z M51,40 C50.448,40 50,39.552 50,39 C50,38.448 50.448,38 51,38 C51.552,38 52,38.448 52,39 C52,39.552 51.552,40 51,40 L51,40 Z M53,28 C52.448,28 52,27.552 52,27 C52,26.448 52.448,26 53,26 C53.552,26 54,26.448 54,27 C54,27.552 53.552,28 53,28 L53,28 Z M53,22 C52.448,22 52,21.552 52,21 C52,20.448 52.448,20 53,20 C53.552,20 54,20.448 54,21 C54,21.552 53.552,22 53,22 L53,22 Z M56,25 C55.448,25 55,24.552 55,24 C55,23.448 55.448,23 56,23 C56.552,23 57,23.448 57,24 C57,24.552 56.552,25 56,25 L56,25 Z M53,17 C50.794,17 49,15.206 49,13 C49,10.794 50.794,9 53,9 C55.206,9 57,10.794 57,13 C57,15.206 55.206,17 53,17 L53,17 Z" sketch:type="MSShapeGroup"></path><path d="M53,11 C51.897,11 51,11.898 51,13 C51,14.103 51.897,15 53,15 C54.102,15 55,14.103 55,13 C55,11.898 54.102,11 53,11" sketch:type="MSShapeGroup"></path></g></g></svg>